<svg width="24" height="24" viewBox="0 0 24 24" fill="none" xmlns="http://www.w3.org/2000/svg">
<g clip-path="url(#clip0)">
<path d="M11.9998 23.8178H11.9953C10.2008 23.8171 8.42169 23.3935 6.82732 22.5898L1.91258 23.7078C1.61269 23.7758 1.29859 23.6858 1.0803 23.4691C0.862007 23.2524 0.769882 22.939 0.835861 22.6386L1.90083 17.7979C0.985893 16.1082 0.502808 14.2577 0.500175 12.4227C0.5 12.4164 0.5 12.4101 0.5 12.4039C0.501228 9.36312 1.70377 6.49935 3.88581 4.34029C6.06294 2.18615 8.94444 0.999756 11.9996 0.999756C15.0617 1.00098 17.9386 2.18843 20.1014 4.3431C22.2941 6.52778 23.5011 9.39383 23.5 12.4131C23.4991 14.6948 22.8149 16.9 21.5215 18.79C21.2413 19.1996 20.6822 19.3044 20.2726 19.0241C19.8633 18.7439 19.7583 18.1848 20.0386 17.7753C21.1267 16.1851 21.7022 14.3307 21.7031 12.4124C21.704 9.87446 20.6848 7.46078 18.8332 5.616C17.0095 3.79895 14.5825 2.79768 11.9993 2.79663C6.65728 2.79663 2.30811 7.09755 2.29688 12.3878C2.29688 12.3936 2.29705 12.3992 2.29705 12.4048C2.29635 14.0424 2.75697 15.7027 3.62891 17.2064C3.74174 17.401 3.77754 17.6307 3.72911 17.8502L2.89507 21.6414L6.75116 20.7642C6.96401 20.7159 7.18722 20.7466 7.37919 20.8507C8.78809 21.6156 10.3844 22.0202 11.9956 22.0209H11.9996C13.7518 22.0209 15.4725 21.5471 16.9756 20.651C17.4017 20.3967 17.9532 20.5362 18.2073 20.9624C18.4614 21.3887 18.3221 21.94 17.8958 22.1943C16.1146 23.2563 14.0757 23.8178 11.9996 23.8178H11.9998ZM9.46244 7.83771C9.26538 7.40112 9.05797 7.38621 8.87056 7.37866H8.36642C8.19094 7.37866 7.90597 7.44429 7.66504 7.70663C7.42393 7.96896 6.74432 8.60313 6.74432 9.89306C6.74432 11.183 7.68697 12.4296 7.81841 12.6047C7.95001 12.7795 9.63827 15.5111 12.3118 16.562C14.5339 17.4354 14.9861 17.2617 15.4683 17.2178C15.9507 17.1743 17.0248 16.5838 17.2438 15.9715C17.4631 15.3595 17.4631 14.8348 17.3973 14.7251C17.3317 14.616 17.1562 14.5504 16.8932 14.4193C16.6299 14.2882 15.3407 13.643 15.0996 13.5556C14.8585 13.4682 14.6832 13.4245 14.5077 13.687C14.3323 13.9492 13.8157 14.5555 13.6621 14.7302C13.5087 14.9055 13.3552 14.9273 13.0922 14.7962C12.8291 14.6646 11.9905 14.383 10.9856 13.49C10.2035 12.7949 9.6609 11.9088 9.50736 11.6462C9.35382 11.3841 9.49087 11.2419 9.62283 11.1112C9.74092 10.9938 9.90078 10.8333 10.0324 10.6802C10.1636 10.5272 10.2012 10.4179 10.2888 10.243C10.3765 10.068 10.3326 9.91499 10.267 9.78374C10.2012 9.65266 9.69617 8.35606 9.46227 7.83771" fill="white"/>
</g>
<defs>
<clipPath id="clip0">
<rect width="23" height="23" fill="white" transform="translate(0.5 0.909912)"/>
</clipPath>
</defs>
</svg>
