<svg width="35" height="33" viewBox="0 0 35 33" fill="none" xmlns="http://www.w3.org/2000/svg">
<g clip-path="url(#clip0)" filter="url(#filter0_d)">
<path d="M17.4991 24.2154C17.4969 24.2154 17.4945 24.2154 17.4921 24.2154C16.7076 24.2099 9.77198 24.1442 7.80699 23.5923C6.43371 23.209 5.34964 22.0844 4.9795 20.6581C4.46534 18.6536 4.49807 14.7943 4.50164 14.4861C4.49826 14.1794 4.46514 10.2882 4.97791 8.26718C4.9785 8.26533 4.9789 8.26327 4.9795 8.26141C5.34548 6.85138 6.45394 5.69205 7.80361 5.30766C7.80699 5.30663 7.81056 5.30581 7.81393 5.30478C9.75671 4.77455 16.706 4.70966 17.4921 4.7041H17.5062C18.2927 4.70966 25.2468 4.77538 27.1937 5.32806C28.5644 5.71079 29.6485 6.83511 30.0187 8.26141C30.5515 10.2799 30.5017 14.1819 30.4965 14.5094C30.4973 14.5819 30.4999 14.8779 30.4953 15.3149C30.4892 15.8935 30.0357 16.3582 29.4799 16.3582C29.4761 16.3582 29.4726 16.3582 29.4688 16.358C28.9078 16.3518 28.4581 15.8745 28.4641 15.2922C28.469 14.825 28.4653 14.5236 28.4653 14.5205C28.4651 14.5096 28.4653 14.4985 28.4653 14.4874C28.4839 13.4092 28.4474 10.2878 28.0586 8.81471C27.8749 8.10753 27.3403 7.5532 26.6621 7.3639C25.2266 6.95623 19.5684 6.82852 17.4991 6.81348C15.4303 6.82852 9.77873 6.95294 8.33523 7.3435C7.67011 7.53508 7.12342 8.10918 6.94112 8.80812C6.48965 10.592 6.53229 14.4338 6.53269 14.4723V14.5001C6.5192 15.5655 6.56661 18.6509 6.94132 20.1122C7.12302 20.812 7.65762 21.3663 8.33563 21.5559C9.78547 21.9631 15.4343 22.091 17.4989 22.1061C19.5688 22.091 25.226 21.9666 26.6651 21.5754C27.3417 21.3853 27.8751 20.8316 28.0574 20.1295C28.2034 19.5672 28.7608 19.2341 29.3024 19.3859C29.8439 19.5375 30.1647 20.1162 30.0187 20.6787C29.6483 22.1048 28.5644 23.2293 27.1896 23.6133C27.1878 23.6137 27.1858 23.6143 27.184 23.6148C25.2414 24.145 18.2919 24.2099 17.506 24.2154C17.5038 24.2154 17.5015 24.2154 17.4991 24.2154ZM16.3494 18.387L21.5372 15.2772C21.8355 15.0981 22.0196 14.7663 22.0196 14.407C22.0196 14.0478 21.8355 13.7159 21.5372 13.5369L16.3494 10.427C16.052 10.2488 15.6862 10.2495 15.3897 10.4289C15.0929 10.6081 14.9102 10.9389 14.9102 11.2969V17.5169C14.9102 17.8749 15.0929 18.2058 15.3897 18.3852C15.5384 18.4752 15.7047 18.5203 15.8709 18.5203C16.0361 18.5203 16.2012 18.4758 16.3494 18.387Z" fill="white"/>
</g>
<defs>
<filter id="filter0_d" x="0.5" y="0.907227" width="34" height="35" filterUnits="userSpaceOnUse" color-interpolation-filters="sRGB">
<feFlood flood-opacity="0" result="BackgroundImageFix"/>
<feColorMatrix in="SourceAlpha" type="matrix" values="0 0 0 0 0 0 0 0 0 0 0 0 0 0 0 0 0 0 127 0"/>
<feOffset dy="4"/>
<feGaussianBlur stdDeviation="2"/>
<feColorMatrix type="matrix" values="0 0 0 0 0 0 0 0 0 0 0 0 0 0 0 0 0 0 0.25 0"/>
<feBlend mode="normal" in2="BackgroundImageFix" result="effect1_dropShadow"/>
<feBlend mode="normal" in="SourceGraphic" in2="effect1_dropShadow" result="shape"/>
</filter>
<clipPath id="clip0">
<rect width="26" height="27" fill="white" transform="translate(4.5 0.907227)"/>
</clipPath>
</defs>
</svg>
