<svg width="25" height="22" viewBox="0 0 25 22" fill="none" xmlns="http://www.w3.org/2000/svg">
<path d="M0.915158 10.6031L6.78416 13.5281C7.01116 13.6401 7.27916 13.6321 7.49616 13.5051L12.7202 10.4681L9.55816 13.2701C9.39716 13.4131 9.30516 13.6171 9.30516 13.8321V20.6571C9.30516 21.3771 10.2242 21.6801 10.6552 21.1081L13.1922 17.7351L19.4662 21.3081C19.9062 21.5611 20.4702 21.3071 20.5722 20.8041L24.4852 1.30415C24.6022 0.718148 24.0192 0.240148 23.4772 0.458148L0.977158 9.23315C0.373158 9.46915 0.334158 10.3141 0.915158 10.6031ZM22.7452 2.35415L19.3062 19.4911L13.3612 16.1051C13.0372 15.9201 12.6202 16.0021 12.3902 16.3061L10.8052 18.4131V14.1691L19.3562 6.59315C20.0332 5.99415 19.2552 4.92915 18.4822 5.38315L7.09216 12.0051L3.10016 10.0161L22.7452 2.35415Z" fill="white"/>
</svg>
